<svg width="200" height="200" viewBox="0 0 200 200" fill="none" xmlns="http://www.w3.org/2000/svg">
<g clip-path="url(#clip0_20_219)">
<path d="M25 141.667C25 146.269 28.731 150 33.3333 150H166.667C171.269 150 175 146.269 175 141.667V141.667C175 137.064 171.269 133.333 166.667 133.333H33.3333C28.731 133.333 25 137.064 25 141.667V141.667ZM25 100C25 104.602 28.731 108.333 33.3333 108.333H166.667C171.269 108.333 175 104.602 175 100V100C175 95.3976 171.269 91.6667 166.667 91.6667H33.3333C28.731 91.6667 25 95.3976 25 100V100ZM33.3333 50C28.731 50 25 53.731 25 58.3333V58.3333C25 62.9357 28.731 66.6667 33.3333 66.6667H166.667C171.269 66.6667 175 62.9357 175 58.3333V58.3333C175 53.731 171.269 50 166.667 50H33.3333Z" fill="#DA1C5C"/>
</g>
<defs>
<clipPath id="clip0_20_219">
<rect width="200" height="200" fill="white"/>
</clipPath>
</defs>
</svg>
