<svg width="48" height="48" viewBox="0 0 48 48" fill="none" xmlns="http://www.w3.org/2000/svg">
<g clip-path="url(#clip0_22_314)">
<path d="M24 14C29.52 14 34 18.48 34 24C34 25.29 33.74 26.52 33.29 27.65L39.14 33.5C42.16 30.98 44.54 27.72 46.01 24C42.54 15.22 34.01 9 24 9C21.2 9 18.52 9.5 16.03 10.4L20.35 14.71C21.48 14.27 22.71 14 24 14V14ZM4 8.55L8.56 13.11L9.47 14.02C6.17 16.6 3.56 20.03 2 24C5.46 32.78 14 39 24 39C27.1 39 30.06 38.4 32.77 37.31L33.62 38.16L39.45 44L42 41.46L6.55 6L4 8.55ZM15.06 19.6L18.15 22.69C18.06 23.12 18 23.55 18 24C18 27.31 20.69 30 24 30C24.45 30 24.88 29.94 25.3 29.85L28.39 32.94C27.06 33.6 25.58 34 24 34C18.48 34 14 29.52 14 24C14 22.42 14.4 20.94 15.06 19.6ZM23.67 18.03L29.97 24.33L30 24C30 20.69 27.31 18 24 18L23.67 18.03Z" fill="#979797"/>
</g>
<defs>
<clipPath id="clip0_22_314">
<rect width="48" height="48" fill="white"/>
</clipPath>
</defs>
</svg>
